<mxfile host="app.diagrams.net" modified="2023-12-22T20:44:26.405Z" agent="Mozilla/5.0 (Windows NT 10.0; Win64; x64) AppleWebKit/537.36 (KHTML, like Gecko) Chrome/120.0.0.0 Safari/537.36" etag="dfhEhTcPRDqBhSmzMdYZ" version="22.1.11" type="device">
  <diagram name="Страница — 1" id="PXgWAhHNH6vLhNhqTipv">
    <mxGraphModel dx="875" dy="471" grid="1" gridSize="10" guides="1" tooltips="1" connect="1" arrows="1" fold="1" page="1" pageScale="1" pageWidth="827" pageHeight="1169" math="0" shadow="0">
      <root>
        <mxCell id="0" />
        <mxCell id="1" parent="0" />
        <mxCell id="xZ3ko09thbIXZkSa8vnp-5" value="Auth" style="swimlane;fontStyle=0;childLayout=stackLayout;horizontal=1;startSize=30;horizontalStack=0;resizeParent=1;resizeParentMax=0;resizeLast=0;collapsible=1;marginBottom=0;whiteSpace=wrap;html=1;" vertex="1" parent="1">
          <mxGeometry x="160" y="320" width="160" height="60" as="geometry" />
        </mxCell>
        <mxCell id="xZ3ko09thbIXZkSa8vnp-51" style="edgeStyle=orthogonalEdgeStyle;rounded=0;orthogonalLoop=1;jettySize=auto;html=1;entryX=1;entryY=0.5;entryDx=0;entryDy=0;" edge="1" parent="1" source="xZ3ko09thbIXZkSa8vnp-15" target="xZ3ko09thbIXZkSa8vnp-5">
          <mxGeometry relative="1" as="geometry" />
        </mxCell>
        <mxCell id="xZ3ko09thbIXZkSa8vnp-15" value="Video" style="swimlane;fontStyle=0;childLayout=stackLayout;horizontal=1;startSize=30;horizontalStack=0;resizeParent=1;resizeParentMax=0;resizeLast=0;collapsible=1;marginBottom=0;whiteSpace=wrap;html=1;" vertex="1" parent="1">
          <mxGeometry x="480" y="320" width="160" height="60" as="geometry" />
        </mxCell>
        <mxCell id="xZ3ko09thbIXZkSa8vnp-19" value="Front" style="swimlane;fontStyle=0;childLayout=stackLayout;horizontal=1;startSize=30;horizontalStack=0;resizeParent=1;resizeParentMax=0;resizeLast=0;collapsible=1;marginBottom=0;whiteSpace=wrap;html=1;" vertex="1" parent="1">
          <mxGeometry x="320" y="80" width="160" height="60" as="geometry" />
        </mxCell>
        <mxCell id="xZ3ko09thbIXZkSa8vnp-22" value="React" style="text;strokeColor=none;fillColor=none;align=left;verticalAlign=middle;spacingLeft=4;spacingRight=4;overflow=hidden;points=[[0,0.5],[1,0.5]];portConstraint=eastwest;rotatable=0;whiteSpace=wrap;html=1;" vertex="1" parent="xZ3ko09thbIXZkSa8vnp-19">
          <mxGeometry y="30" width="160" height="30" as="geometry" />
        </mxCell>
        <mxCell id="xZ3ko09thbIXZkSa8vnp-27" value="CacheDB" style="swimlane;fontStyle=0;childLayout=stackLayout;horizontal=1;startSize=30;horizontalStack=0;resizeParent=1;resizeParentMax=0;resizeLast=0;collapsible=1;marginBottom=0;whiteSpace=wrap;html=1;" vertex="1" parent="1">
          <mxGeometry x="320" y="720" width="160" height="60" as="geometry" />
        </mxCell>
        <mxCell id="xZ3ko09thbIXZkSa8vnp-28" value="Redis" style="text;strokeColor=none;fillColor=none;align=left;verticalAlign=middle;spacingLeft=4;spacingRight=4;overflow=hidden;points=[[0,0.5],[1,0.5]];portConstraint=eastwest;rotatable=0;whiteSpace=wrap;html=1;" vertex="1" parent="xZ3ko09thbIXZkSa8vnp-27">
          <mxGeometry y="30" width="160" height="30" as="geometry" />
        </mxCell>
        <mxCell id="xZ3ko09thbIXZkSa8vnp-31" value="MainDB" style="swimlane;fontStyle=0;childLayout=stackLayout;horizontal=1;startSize=30;horizontalStack=0;resizeParent=1;resizeParentMax=0;resizeLast=0;collapsible=1;marginBottom=0;whiteSpace=wrap;html=1;" vertex="1" parent="1">
          <mxGeometry x="320" y="880" width="160" height="60" as="geometry" />
        </mxCell>
        <mxCell id="xZ3ko09thbIXZkSa8vnp-34" value="Postgres" style="text;strokeColor=none;fillColor=none;align=left;verticalAlign=middle;spacingLeft=4;spacingRight=4;overflow=hidden;points=[[0,0.5],[1,0.5]];portConstraint=eastwest;rotatable=0;whiteSpace=wrap;html=1;" vertex="1" parent="xZ3ko09thbIXZkSa8vnp-31">
          <mxGeometry y="30" width="160" height="30" as="geometry" />
        </mxCell>
        <mxCell id="xZ3ko09thbIXZkSa8vnp-47" style="edgeStyle=orthogonalEdgeStyle;rounded=0;orthogonalLoop=1;jettySize=auto;html=1;entryX=0.5;entryY=0;entryDx=0;entryDy=0;" edge="1" parent="1" source="xZ3ko09thbIXZkSa8vnp-35" target="xZ3ko09thbIXZkSa8vnp-27">
          <mxGeometry relative="1" as="geometry" />
        </mxCell>
        <mxCell id="xZ3ko09thbIXZkSa8vnp-35" value="Back" style="swimlane;whiteSpace=wrap;html=1;" vertex="1" parent="1">
          <mxGeometry x="120" y="280" width="560" height="360" as="geometry" />
        </mxCell>
        <mxCell id="xZ3ko09thbIXZkSa8vnp-41" value="Chat" style="swimlane;fontStyle=0;childLayout=stackLayout;horizontal=1;startSize=30;horizontalStack=0;resizeParent=1;resizeParentMax=0;resizeLast=0;collapsible=1;marginBottom=0;whiteSpace=wrap;html=1;" vertex="1" parent="xZ3ko09thbIXZkSa8vnp-35">
          <mxGeometry x="360" y="200" width="160" height="60" as="geometry" />
        </mxCell>
        <mxCell id="xZ3ko09thbIXZkSa8vnp-49" style="edgeStyle=orthogonalEdgeStyle;rounded=0;orthogonalLoop=1;jettySize=auto;html=1;entryX=0.5;entryY=1;entryDx=0;entryDy=0;" edge="1" parent="1" source="xZ3ko09thbIXZkSa8vnp-37" target="xZ3ko09thbIXZkSa8vnp-5">
          <mxGeometry relative="1" as="geometry" />
        </mxCell>
        <mxCell id="xZ3ko09thbIXZkSa8vnp-37" value="UserInfo" style="swimlane;fontStyle=0;childLayout=stackLayout;horizontal=1;startSize=30;horizontalStack=0;resizeParent=1;resizeParentMax=0;resizeLast=0;collapsible=1;marginBottom=0;whiteSpace=wrap;html=1;" vertex="1" parent="1">
          <mxGeometry x="160" y="480" width="160" height="60" as="geometry" />
        </mxCell>
        <mxCell id="xZ3ko09thbIXZkSa8vnp-46" style="edgeStyle=orthogonalEdgeStyle;rounded=0;orthogonalLoop=1;jettySize=auto;html=1;entryX=0.497;entryY=-0.01;entryDx=0;entryDy=0;entryPerimeter=0;" edge="1" parent="1" source="xZ3ko09thbIXZkSa8vnp-22" target="xZ3ko09thbIXZkSa8vnp-35">
          <mxGeometry relative="1" as="geometry" />
        </mxCell>
        <mxCell id="xZ3ko09thbIXZkSa8vnp-48" style="edgeStyle=orthogonalEdgeStyle;rounded=0;orthogonalLoop=1;jettySize=auto;html=1;entryX=0.5;entryY=0;entryDx=0;entryDy=0;" edge="1" parent="1" source="xZ3ko09thbIXZkSa8vnp-28" target="xZ3ko09thbIXZkSa8vnp-31">
          <mxGeometry relative="1" as="geometry" />
        </mxCell>
        <mxCell id="xZ3ko09thbIXZkSa8vnp-50" style="edgeStyle=orthogonalEdgeStyle;rounded=0;orthogonalLoop=1;jettySize=auto;html=1;entryX=1;entryY=0.5;entryDx=0;entryDy=0;" edge="1" parent="1" source="xZ3ko09thbIXZkSa8vnp-41" target="xZ3ko09thbIXZkSa8vnp-5">
          <mxGeometry relative="1" as="geometry" />
        </mxCell>
        <mxCell id="xZ3ko09thbIXZkSa8vnp-52" style="edgeStyle=orthogonalEdgeStyle;rounded=0;orthogonalLoop=1;jettySize=auto;html=1;entryX=1;entryY=0.5;entryDx=0;entryDy=0;" edge="1" parent="1" source="xZ3ko09thbIXZkSa8vnp-41" target="xZ3ko09thbIXZkSa8vnp-37">
          <mxGeometry relative="1" as="geometry" />
        </mxCell>
      </root>
    </mxGraphModel>
  </diagram>
</mxfile>
